PathFileType	4	(X/Y/Z)	/Users/visionmauri/Downloads/Videos/OAW02-top_Sports2D/OAW02-top_Sports2D_px_person00.trc
DataRate	CameraRate	NumFrames	NumMarkers	Units	OrigDataRate	OrigDataStartFrame	OrigNumFrames
30.0	30.0	8	22	m	30.0	1348	2158
Frame#	Time	Hip			RHip			RKnee			RAnkle			RBigToe			RSmallToe			RHeel			LHip			LKnee			LAnkle			LBigToe			LSmallToe			LHeel			Neck			Head			Nose			RShoulder			RElbow			RWrist			LShoulder			LElbow			LWrist			
		X1	Y1	Z1	X2	Y2	Z2	X3	Y3	Z3	X4	Y4	Z4	X5	Y5	Z5	X6	Y6	Z6	X7	Y7	Z7	X8	Y8	Z8	X9	Y9	Z9	X10	Y10	Z10	X11	Y11	Z11	X12	Y12	Z12	X13	Y13	Z13	X14	Y14	Z14	X15	Y15	Z15	X16	Y16	Z16	X17	Y17	Z17	X18	Y18	Z18	X19	Y19	Z19	X20	Y20	Z20	X21	Y21	Z21	X22	Y22	Z22
1348	44.954164734971414	642.9574362295557	933.2625055015897	0.0	666.2075963963568	936.6030713339694	0.0	664.122987600551	1004.2310932213618	0.0	664.9105452031487	1071.2605637277954	0.0	655.93463360509	1100.7630930803095	0.0	672.3837119489021	1100.970157223735	0.0	663.6049293952751	1089.4299334813045	0.0	622.2922228655963	937.7454286459405	0.0	627.380322689118	1015.1445116911586	0.0	632.3676240996022	1095.9367210514142	0.0	635.7408006483084	1104.3298784209492	0.0	621.6046314554397	1109.5510314327526	0.0	634.7463550523318	1113.7991847290773	0.0	640.9318132636705	808.478607421008	0.0	635.8569698240294	759.6706842650593	0.0	634.9598176148119	791.2347713990583	0.0	680.9219437501138	824.800113573854	0.0	698.2553100847613	884.7301506003648	0.0	706.1645166079716	936.0692170020716	0.0	601.617377030047	822.6092291053767	0.0	585.0143065476387	877.9055077155266	0.0	573.5549482198463	927.4208626350419	0.0
1349	44.987513521866795	642.5092580869625	931.5012197740344	0.0	665.649866919576	935.6879951006845	0.0	662.1564827926874	1001.5162960485411	0.0	662.0652733762354	1070.3498474417383	0.0	654.7948579765557	1091.7059341900112	0.0	670.7230105304275	1092.4682395001305	0.0	660.4925735961839	1089.0567953329823	0.0	621.7289515358443	936.6059387283411	0.0	627.3377019239108	1014.492137896489	0.0	632.3787894353645	1096.103639188991	0.0	636.3439642188005	1103.4654684830284	0.0	622.1369290415847	1109.340338425629	0.0	635.329507040283	1114.0645493793616	0.0	640.2927341650254	806.7242878061535	0.0	635.2496795406262	759.2411163329281	0.0	634.4855448732052	790.5042705093609	0.0	679.8708994882087	823.4612231845238	0.0	697.39226763263	882.8627886422802	0.0	705.7826710035181	934.5789612602327	0.0	600.9443832097496	821.2459334347703	0.0	583.9243332833596	877.0090772292407	0.0	572.8277989200051	925.8422277702979	0.0
1350	45.020862308762176	641.7840556941693	930.253688465424	0.0	664.9641587836068	934.7413649697555	0.0	660.4403383662825	998.6038905730845	0.0	658.7408977884329	1067.1790045807552	0.0	652.8100531623861	1080.635090424692	0.0	668.7120299708866	1082.1556763799138	0.0	656.698920330206	1085.999416271381	0.0	620.760912030112	935.6483891331067	0.0	627.3414109098578	1013.1508871502074	0.0	632.3089830106179	1095.9516852980016	0.0	636.6330693484491	1102.366045295631	0.0	622.6111639934554	1109.6958191345066	0.0	635.5844342074938	1114.2173236940828	0.0	639.5998767686758	805.0710763062707	0.0	634.6155046160266	759.3374903149661	0.0	633.8483968127613	790.161193671801	0.0	678.7584828061379	822.287706038037	0.0	696.556906996318	880.956576463281	0.0	705.4153640218827	932.970132203129	0.0	600.445832135956	820.7977689359301	0.0	583.0788914079715	876.5938542639178	0.0	572.362983332721	924.5254314506367	0.0
1351	45.05421109565755	640.7781117067998	930.0088029441001	0.0	664.0465689409723	933.6302714234876	0.0	659.0906877603604	995.7429803875751	0.0	655.3094024753981	1061.159415496986	0.0	649.7081702637562	1071.9885447728882	0.0	665.7126054060944	1073.5177986071506	0.0	652.8145496537724	1079.1345645174824	0.0	619.5269328051863	934.7376989127997	0.0	627.2850859015889	1011.2113339530401	0.0	632.4527327157144	1095.3164075860195	0.0	636.7099796947305	1101.6415397013986	0.0	622.9677183103169	1110.586288995333	0.0	635.7751137681056	1113.5940650307857	0.0	638.9186967585371	804.3680712017665	0.0	634.0630319641556	759.6187004014822	0.0	633.5693357570482	789.8887150004801	0.0	677.9239144291067	821.7554725192861	0.0	695.77771121658	879.5396141294493	0.0	704.790912758054	932.0027782650667	0.0	600.1116768378878	820.9854557433644	0.0	582.5504989767467	876.1711867902409	0.0	572.2673046483379	923.5452408786648	0.0
1352	45.08755988255293	639.8161459878116	929.8527912179969	0.0	663.3526083584604	932.599978619588	0.0	658.1121046785912	992.8029842293943	0.0	652.5968016442698	1052.876885401255	0.0	645.9026498331118	1066.2575151453404	0.0	661.9146372473374	1066.8229359903519	0.0	649.6163130979743	1068.6510003584156	0.0	618.6805479662851	933.650031745613	0.0	627.2394307248907	1008.9764942950626	0.0	632.9893468453221	1094.168377942956	0.0	636.3920210186988	1101.6089927722664	0.0	623.1209030623123	1111.0253520851556	0.0	636.2416672660889	1111.8125229599502	0.0	638.4230674092097	804.2838673910319	0.0	633.8037963313271	759.87067913331	0.0	633.6252226116912	789.3921574684713	0.0	677.5233397002494	821.7056712727385	0.0	695.212958326876	878.5442902332802	0.0	704.1782580848648	931.4167975124576	0.0	600.058245824985	821.1300751972469	0.0	582.4900171267452	875.6186328506358	0.0	572.4073824684175	922.8431455939553	0.0
1353	45.12090866944831	639.2949127502009	928.7924524059069	0.0	663.2282556567185	931.7591404835049	0.0	657.2443502820713	990.0471094758603	0.0	650.8285936920915	1045.099868012852	0.0	642.0189565954084	1061.982607674222	0.0	658.0656020332667	1061.1992168017966	0.0	647.1949718754495	1058.0581346675117	0.0	618.579748953743	932.1889918902451	0.0	627.0721211572121	1006.6957118938325	0.0	633.5662850427633	1092.6598571240925	0.0	635.7999565666123	1101.8948113336364	0.0	623.1846283919346	1110.3059913225015	0.0	636.8518712479395	1109.2431676102342	0.0	638.1838726251481	804.1825839554758	0.0	633.7468850371606	759.9185443997077	0.0	633.8403566718671	788.665374205248	0.0	677.4752286463647	821.4580456402241	0.0	694.8741453151185	877.5392465696362	0.0	703.8042147945375	930.5330191947227	0.0	600.3584915031688	820.7580225944168	0.0	582.897456102185	875.0045766125504	0.0	572.5826110745019	922.0519320185555	0.0
1354	45.15425745634369	639.2910041641699	926.9600316231031	0.0	663.3896354107592	930.8105578681118	0.0	656.0172246624988	988.3290411281866	0.0	649.3786285646933	1041.8761594131747	0.0	638.6392577731602	1060.379470305748	0.0	654.9138705836067	1058.2809206091765	0.0	644.9428133488666	1053.2473125940933	0.0	618.7783779682671	930.4331345093631	0.0	626.4747117522611	1004.3759554220209	0.0	633.6283609660026	1090.8636350897264	0.0	635.3023285816374	1101.9633798425982	0.0	623.0352712533411	1108.8719237615232	0.0	637.2284650032443	1106.616238721552	0.0	638.1132015541283	804.113544467362	0.0	633.5490252561483	759.4267018475406	0.0	634.2082508772353	788.0296647144862	0.0	677.5371537527482	821.0115350841294	0.0	694.6905262007617	876.6336563344566	0.0	703.4744922577644	929.4712429783222	0.0	600.9066018796294	819.9867543332584	0.0	583.4361245278285	874.2165400331445	0.0	572.8417809383595	920.9956943064927	0.0
1355	45.18760624323907	639.5567195037906	925.0575373197386	0.0	663.377551771959	929.356213363603	0.0	654.4679312600998	987.7578705986236	0.0	647.9865008176379	1043.8787872578798	0.0	636.1621973704082	1061.85850596551	0.0	652.9412131923359	1058.7398049220678	0.0	642.9971939188207	1056.2687785134133	0.0	618.6935926820234	928.6584809178362	0.0	625.4053484224313	1001.9851040154413	0.0	633.1201691479354	1088.3715839002678	0.0	634.8212387913773	1101.8798259706546	0.0	622.4366866012563	1107.5740398663677	0.0	637.1704296508193	1104.1251044277078	0.0	638.2002703425711	804.2040981326105	0.0	633.2787870767866	758.2889866572541	0.0	634.7165752394917	787.6925249251092	0.0	677.5116591154178	820.7559132816664	0.0	694.7490559298585	876.2081384492905	0.0	703.1490937454258	928.6641090161708	0.0	601.5149118423519	819.2509049882802	0.0	583.793411501838	873.198140482208	0.0	573.2954967649375	919.8584213419399	0.0
